<?xml version="1.0" encoding="UTF-8"?>
<svg id="Layer_1" xmlns="http://www.w3.org/2000/svg" xmlns:xlink="http://www.w3.org/1999/xlink" viewBox="0 0 595.28 156.79">
  <defs>
    <style>
      .cls-1 {
        fill: url(#Dégradé_sans_nom_7);
      }

      .cls-2 {
        fill: #fff;
      }

      .cls-3 {
        fill: #00b8bc;
      }

      .cls-4 {
        fill: url(#Dégradé_sans_nom_7-2);
      }
    </style>
    <linearGradient id="Dégradé_sans_nom_7" data-name="Dégradé sans nom 7" x1="10.18" y1="126.04" x2="174.31" y2="83.58" gradientUnits="userSpaceOnUse">
      <stop offset="0" stop-color="#00a2dc"/>
      <stop offset="1" stop-color="#00b8bc"/>
    </linearGradient>
    <linearGradient id="Dégradé_sans_nom_7-2" data-name="Dégradé sans nom 7" x1="2.74" y1="97.26" x2="166.86" y2="54.8" xlink:href="#Dégradé_sans_nom_7"/>
  </defs>
  <g>
    <g>
      <path class="cls-3" d="M274.88,31.7h8.08v14.89h16.21v-14.89h8.08v37.16h-8.08v-15.58h-16.21v15.58h-8.08V31.7Z"/>
      <path class="cls-3" d="M321.48,67.21c-3.03-1.63-5.41-3.91-7.15-6.83-1.74-2.92-2.61-6.28-2.61-10.07s.87-7.16,2.61-10.1c1.74-2.94,4.12-5.23,7.15-6.86,3.03-1.63,6.41-2.45,10.13-2.45s7.08.82,10.07,2.45c2.99,1.63,5.36,3.92,7.1,6.86,1.74,2.94,2.6,6.31,2.6,10.1s-.87,7.15-2.6,10.07c-1.74,2.92-4.1,5.2-7.1,6.83-3,1.63-6.35,2.45-10.07,2.45s-7.1-.82-10.13-2.45ZM337.43,60.75c1.75-.97,3.14-2.36,4.17-4.15,1.03-1.79,1.54-3.89,1.54-6.3s-.5-4.46-1.52-6.25c-1.01-1.79-2.39-3.17-4.15-4.15-1.75-.97-3.71-1.46-5.87-1.46s-4.17.49-5.93,1.46c-1.75.97-3.15,2.36-4.17,4.15-1.03,1.79-1.54,3.87-1.54,6.25s.51,4.51,1.54,6.3c1.03,1.79,2.43,3.17,4.2,4.15,1.77.97,3.74,1.46,5.9,1.46s4.07-.49,5.82-1.46Z"/>
      <path class="cls-3" d="M358.93,69.02c-2.23-.43-4.06-.99-5.48-1.7v-7.12c1.88.92,3.83,1.61,5.85,2.07,2.02.46,3.95.69,5.79.69,2.06,0,3.62-.35,4.68-1.06,1.06-.71,1.59-1.7,1.59-2.98,0-.92-.27-1.7-.8-2.34s-1.3-1.21-2.31-1.73c-1.01-.51-2.56-1.2-4.65-2.05-3.47-1.42-5.99-3-7.55-4.76-1.56-1.75-2.34-3.92-2.34-6.51,0-2.09.57-3.94,1.7-5.56,1.13-1.61,2.73-2.86,4.79-3.75,2.06-.89,4.43-1.33,7.12-1.33,2.2,0,4.15.18,5.85.53,1.7.35,3.37.9,5,1.65v6.91c-3.12-1.56-6.24-2.34-9.36-2.34-1.99,0-3.55.35-4.68,1.04-1.14.69-1.7,1.67-1.7,2.95,0,.92.27,1.68.8,2.29.53.6,1.28,1.13,2.23,1.59.96.46,2.52,1.13,4.68,2.02,2.52,1.06,4.48,2.08,5.9,3.06,1.42.97,2.46,2.13,3.14,3.46.67,1.33,1.01,2.97,1.01,4.92,0,3.37-1.21,5.99-3.64,7.87-2.43,1.88-6.05,2.82-10.87,2.82-2.27,0-4.52-.21-6.75-.64Z"/>
      <path class="cls-3" d="M384.72,31.7h15.63c4.22,0,7.58,1.11,10.1,3.32,2.52,2.22,3.78,5.29,3.78,9.22s-1.25,7.14-3.75,9.3c-2.5,2.16-5.87,3.24-10.13,3.24h-7.55v12.07h-8.08V31.7ZM399.18,50.04c4.57,0,6.86-1.93,6.86-5.79,0-2.16-.61-3.67-1.83-4.52-1.22-.85-2.9-1.28-5.02-1.28h-6.38v11.59h6.38Z"/>
      <path class="cls-3" d="M417.95,31.7h8.08v37.16h-8.08V31.7Z"/>
      <path class="cls-3" d="M440.49,38.45h-10.85v-6.75h29.77v6.75h-10.85v30.41h-8.08v-30.41Z"/>
      <path class="cls-3" d="M462.98,31.7h25.78v6.75h-17.7v8.61h13.03v6.49h-13.03v8.56h17.7v6.75h-25.78V31.7Z"/>
      <path class="cls-3" d="M500.4,67.29c-3.05-1.58-5.41-3.82-7.07-6.73-1.67-2.91-2.5-6.33-2.5-10.26s.83-7.36,2.5-10.29c1.67-2.92,4.02-5.17,7.07-6.75,3.05-1.58,6.56-2.37,10.53-2.37,5.14,0,9.43,1.17,12.87,3.51v7.66c-1.56-1.31-3.34-2.26-5.34-2.84-2-.58-4.28-.88-6.83-.88-3.86,0-6.92,1.07-9.17,3.22-2.25,2.15-3.38,5.06-3.38,8.75s1.13,6.65,3.4,8.8c2.27,2.14,5.32,3.22,9.14,3.22,2.62,0,4.94-.31,6.97-.93,2.02-.62,3.9-1.62,5.63-3v7.66c-3.26,2.41-7.69,3.62-13.29,3.62-3.97,0-7.48-.79-10.53-2.37Z"/>
      <path class="cls-3" d="M528.74,31.7h8.08v14.89h16.21v-14.89h8.08v37.16h-8.08v-15.58h-16.21v15.58h-8.08V31.7Z"/>
    </g>
    <g>
      <path class="cls-2" d="M410.39,104.13l-11.07-21.45h10.76l7.23,14.09,13.23-14.09h10.76l-20.15,21.45,11.19,21.76h-10.76l-7.42-14.34-13.48,14.34h-10.76l20.46-21.76Z"/>
      <path class="cls-3" d="M440.17,88.73h15.63c4.22,0,7.58,1.11,10.1,3.32,2.52,2.22,3.78,5.29,3.78,9.22s-1.25,7.14-3.75,9.3c-2.5,2.16-5.87,3.24-10.13,3.24h-7.55v12.07h-8.08v-37.16ZM454.63,107.07c4.57,0,6.86-1.93,6.86-5.79,0-2.16-.61-3.67-1.83-4.52-1.22-.85-2.9-1.28-5.02-1.28h-6.38v11.59h6.38Z"/>
      <path class="cls-3" d="M473.4,88.73h25.78v6.75h-17.7v8.61h13.03v6.49h-13.03v8.56h17.7v6.75h-25.78v-37.16Z"/>
      <path class="cls-3" d="M503.12,88.73h16.11c4.22,0,7.5,1.06,9.86,3.16,2.36,2.11,3.54,5.15,3.54,9.12,0,2.76-.64,5.11-1.91,7.04-1.28,1.93-3.08,3.34-5.42,4.23l7.07,13.61h-8.29l-6.54-12.6h-6.33v12.6h-8.08v-37.16ZM517.79,106.54c2.06,0,3.68-.44,4.86-1.33,1.19-.89,1.78-2.29,1.78-4.2,0-2.02-.58-3.45-1.75-4.28-1.17-.83-2.8-1.25-4.89-1.25h-6.59v11.06h6.59Z"/>
      <path class="cls-3" d="M544.16,95.48h-10.85v-6.75h29.77v6.75h-10.85v30.41h-8.08v-30.41Z"/>
    </g>
  </g>
  <g>
    <path class="cls-1" d="M236.18,52.8c-2.25-4.77-5.66-8.55-10.25-11.35-4.59-2.8-10.41-4.2-17.47-4.2h-26.34c-2.66,0-4.81,2.15-4.81,4.81v14.36c0,2.91-2.36,5.28-5.28,5.28h-2.32c-2.69,0-4.88,2.18-4.88,4.88v34.98c0,.07.06.13.13.13h2.21,0c2.91,0,5.28,2.36,5.28,5.28v18.9h9.69c2.69,0,4.86-2.18,4.86-4.86v-21.02c0-.07.06-.13.13-.13h20.79c6.51,0,12.13-1.31,16.86-3.92,4.72-2.61,8.37-6.26,10.94-10.94,2.57-4.68,3.85-10.04,3.85-16.1s-1.12-11.33-3.37-16.1ZM213.48,78.95c-2.34,2.57-5.85,3.85-10.53,3.85h-11.1c-2.68,0-4.86-2.18-4.86-4.86v-23.5c0-.07.06-.13.13-.13h16.52c4.59,0,7.96,1.26,10.11,3.78,2.15,2.52,3.23,6.08,3.23,10.66,0,4.22-1.17,7.61-3.51,10.18Z"/>
    <path class="cls-2" d="M174.85,31.82h-24.73c-1.49,0-2.7,1.21-2.7,2.7v18.74h0c0,8.38-4.87,14.49-8.46,17.84-2.05,1.92-4.77,2.98-7.58,2.98h-11.32s-.06,0-.09,0c-.51.03-1.01-.01-1.49-.16-2.07-.66-8.9-4.26-9.06-8.04h0v-2.59c0-.89-.72-1.6-1.6-1.6h-7.14v7.14c0,.89.72,1.6,1.6,1.6h4.12c.21,0,.41.01.62.03,5.88.41,10.35,5.49,10.35,11.39v11.52c0,.07,0,.13-.02.2-.26,1.11-2.84,11.23-11.53,16.55-2.04,1.25-4.39,1.88-6.78,1.88h0c-1.41,0-2.55,1.14-2.55,2.55v11.35s11.35,0,11.35,0c1.41,0,2.55-1.14,2.55-2.55v-5.39h0c0-8.39,4.88-14.49,8.46-17.85,2.04-1.91,4.75-2.96,7.55-2.96h10.37s0,0-.01.01c0,0,10.14,2.16,15.94,10.47,1.74,2.49,2.58,5.49,2.58,8.53h0c0,1.49,1.21,2.7,2.7,2.7h12.02s0-12.02,0-12.02c0-1.49-1.21-2.7-2.7-2.7h-6.04,0c-9.6,0-16.21-6.39-19.13-9.91-1.09-1.32-1.68-2.97-1.68-4.67,0,0,0-6.25,0-9.65,0-1.75.31-3.47.91-5.11,1.28-3.46,4.11-9.21,9.64-13.03,2.42-1.67,5.32-2.51,8.26-2.51h12.9c1.49,0,2.7-1.21,2.7-2.7v-24.73Z"/>
    <path class="cls-2" d="M122.87,50.47h8.28c1.32,0,2.4-1.07,2.4-2.4v-10.68h-10.68c-1.32,0-2.4,1.07-2.4,2.4v8.28c0,1.32,1.07,2.4,2.4,2.4Z"/>
    <path class="cls-2" d="M133.27,100.62h-8.28c-1.32,0-2.4,1.07-2.4,2.4v8.28c0,1.32,1.07,2.4,2.4,2.4h10.68v-10.68c0-1.32-1.07-2.4-2.4-2.4Z"/>
    <path class="cls-2" d="M159.59,71.09h-10.68c-1.32,0-2.4,1.07-2.4,2.4v8.28c0,1.32,1.07,2.4,2.4,2.4h8.28c1.32,0,2.4-1.07,2.4-2.4v-10.68Z"/>
    <path class="cls-4" d="M106.36,72.88h-3.25c-2.7,0-4.89-2.19-4.89-4.89v-8.76h0s8.56,0,8.56,0c2.72,0,4.92-2.2,4.92-4.92v-16.92h-17.54c-2.69,0-4.86,2.18-4.86,4.86v24.45c0,2.69-2.18,4.86-4.86,4.86h-24.96c-2.69,0-4.86-2.18-4.86-4.86v-24.45c0-2.69-2.18-4.86-4.86-4.86h-17.54v83.63c0,2.69,2.18,4.86,4.86,4.86h17.54v-30.84c0-2.69,2.18-4.86,4.86-4.86h24.96c2.69,0,4.86,2.18,4.86,4.86v30.84h4.74v-15.1c0-1.09,1.03-1.89,2.09-1.62,2.99.77,6.01.32,8.41-1.15,3.25-1.99,5.56-4.74,7.16-7.35v-25.79c-1.34-1.13-3.01-1.86-4.85-1.99-.16-.01-.32-.02-.49-.02Z"/>
  </g>
</svg>