<?xml version="1.0" encoding="utf-8"?>
<!-- Generator: Adobe Illustrator 28.3.0, SVG Export Plug-In . SVG Version: 6.00 Build 0)  -->
<svg version="1.1" id="Layer_1" xmlns="http://www.w3.org/2000/svg" xmlns:xlink="http://www.w3.org/1999/xlink" x="0px" y="0px"
	 viewBox="0 0 84 32" style="enable-background:new 0 0 84 32;" xml:space="preserve">
<style type="text/css">
	.st0{fill:url(#SVGID_1_);}
	.st1{fill:url(#SVGID_00000162341340551632249790000018174770815037690275_);}
	.st2{fill:#0F172A;}
	.st3{fill:url(#SVGID_00000083793541844284337290000007877513490227079842_);}
</style>
<linearGradient id="SVGID_1_" gradientUnits="userSpaceOnUse" x1="3.2447" y1="0.3059" x2="20.9514" y2="33.6664">
	<stop  offset="0" style="stop-color:#00A2DC"/>
	<stop  offset="1" style="stop-color:#00B8BC"/>
</linearGradient>
<path class="st0" d="M28.3,23.7h-2l-3.3-7h2.9c0.5,0,0.9-0.4,0.9-1v0c0-0.5-0.4-1-0.9-1h-3.8l-0.6-1.2h1.6c0.5,0,0.9-0.4,0.9-1
	c0-0.5-0.4-1-0.9-1h-2.5l-1.8-3.9h4.3c0.5,0,0.9-0.4,0.9-1s-0.4-1-0.9-1h-5.2l-1.2-2.6c-1.1-2.3-4.4-2.3-5.4,0l-0.3,0.5h2.9
	c0.5,0,0.9,0.4,0.9,1s-0.4,1-0.9,1H10l-1.9,4h1c0.5,0,0.9,0.4,0.9,1s-0.4,1-0.9,1H7.2l-0.6,1.2h4.1c0.5,0,0.9,0.4,0.9,1
	c0,0.5-0.4,1-0.9,1h-5l-3.6,7.5h1.9c0.5,0,0.9,0.4,0.9,1s-0.4,1-0.9,1H1.3l-0.7,1.4c-1,2,0.5,4.4,2.7,4.4h0.9c1.2,0,2.2-0.7,2.7-1.7
	l4.3-9.1c1.1-2.3,4.4-2.3,5.5,0c1,2-0.5,4.3-2.7,4.3h-0.1c-1.2,0-2.3,0.7-2.7,1.8l-0.2,0.4c-0.9,2,0.6,4.3,2.7,4.3h8.1h2.7
	c2.2,0,3.7-2.3,2.7-4.3h1.1c0.5,0,0.9-0.4,0.9-1S28.9,23.7,28.3,23.7z"/>
<linearGradient id="SVGID_00000103229502594167154910000012335457780888964002_" gradientUnits="userSpaceOnUse" x1="3.2447" y1="0.3059" x2="20.9514" y2="33.6664">
	<stop  offset="0" style="stop-color:#00A2DC"/>
	<stop  offset="1" style="stop-color:#00B8BC"/>
</linearGradient>
<path style="fill:url(#SVGID_00000103229502594167154910000012335457780888964002_);" d="M28.3,23.7h-2l-3.3-7h2.9
	c0.5,0,0.9-0.4,0.9-1v0c0-0.5-0.4-1-0.9-1h-3.8l-0.6-1.2h1.6c0.5,0,0.9-0.4,0.9-1c0-0.5-0.4-1-0.9-1h-2.5l-1.8-3.9h4.3
	c0.5,0,0.9-0.4,0.9-1s-0.4-1-0.9-1h-5.2l-1.2-2.6c-1.1-2.3-4.4-2.3-5.4,0l-0.3,0.5h2.9c0.5,0,0.9,0.4,0.9,1s-0.4,1-0.9,1H10l-1.9,4
	h1c0.5,0,0.9,0.4,0.9,1s-0.4,1-0.9,1H7.2l-0.6,1.2h4.1c0.5,0,0.9,0.4,0.9,1c0,0.5-0.4,1-0.9,1h-5l-3.6,7.5h1.9c0.5,0,0.9,0.4,0.9,1
	s-0.4,1-0.9,1H1.3l-0.7,1.4c-1,2,0.5,4.4,2.7,4.4h0.9c1.2,0,2.2-0.7,2.7-1.7l4.3-9.1c1.1-2.3,4.4-2.3,5.5,0c1,2-0.5,4.3-2.7,4.3
	h-0.1c-1.2,0-2.3,0.7-2.7,1.8l-0.2,0.4c-0.9,2,0.6,4.3,2.7,4.3h8.1h2.7c2.2,0,3.7-2.3,2.7-4.3h1.1c0.5,0,0.9-0.4,0.9-1
	S28.9,23.7,28.3,23.7z"/>
<g>
	<path class="st2" d="M37,6.1L41.7,18h-2.2L38,14.5h-4.6c-0.2,0.6-0.4,1.2-0.7,1.7c-0.2,0.6-0.5,1.2-0.7,1.7h-2.3l4.7-11.9H37z
		 M35.7,8.6l-1.6,4.2h3.3L35.7,8.6z"/>
	<path class="st2" d="M46.7,6.1h5.1c0.7,0,1.2,0.1,1.8,0.3c0.5,0.2,0.9,0.5,1.3,0.8c0.3,0.3,0.6,0.7,0.8,1.1
		c0.2,0.4,0.3,0.8,0.3,1.3c0,0.5-0.1,0.9-0.3,1.3c-0.2,0.4-0.4,0.8-0.8,1.1c-0.3,0.3-0.8,0.6-1.3,0.8c-0.5,0.2-1.1,0.3-1.8,0.3h-2.9
		V18h-2.2V6.1z M48.9,11.5h2.4c0.4,0,0.8,0,1.1-0.1c0.3-0.1,0.5-0.2,0.7-0.4c0.2-0.2,0.3-0.4,0.4-0.6c0.1-0.2,0.1-0.5,0.1-0.7
		c0-0.3-0.1-0.5-0.2-0.7c-0.1-0.2-0.3-0.4-0.5-0.6c-0.2-0.2-0.5-0.3-0.7-0.4c-0.3-0.1-0.6-0.1-1-0.1h-2.4V11.5z"/>
	<path class="st2" d="M61.7,13.8c0,0.4,0.1,0.8,0.3,1.1c0.1,0.3,0.3,0.6,0.6,0.9c0.2,0.2,0.5,0.4,0.9,0.6c0.3,0.1,0.7,0.2,1.1,0.2
		c0.3,0,0.7,0,1-0.1c0.3-0.1,0.6-0.2,0.8-0.3c0.2-0.2,0.4-0.4,0.6-0.6c0.1-0.2,0.2-0.6,0.2-0.9c0-0.3-0.1-0.6-0.3-0.8
		c-0.2-0.2-0.5-0.4-0.8-0.6c-0.3-0.2-0.7-0.3-1.2-0.4c-0.4-0.1-0.9-0.3-1.3-0.4c-0.5-0.1-0.9-0.3-1.3-0.5c-0.4-0.2-0.8-0.4-1.2-0.7
		c-0.3-0.3-0.6-0.6-0.8-0.9c-0.2-0.4-0.3-0.8-0.3-1.3c0-0.5,0.1-1,0.3-1.4c0.2-0.4,0.5-0.7,0.9-1c0.4-0.3,0.9-0.5,1.4-0.6
		c0.6-0.1,1.2-0.2,1.8-0.2c0.6,0,1.1,0.1,1.6,0.2c0.5,0.1,0.8,0.3,1.2,0.4c0.3,0.2,0.6,0.4,0.9,0.7c0.2,0.3,0.4,0.5,0.6,0.8
		c0.1,0.3,0.3,0.6,0.3,0.9c0.1,0.3,0.1,0.6,0.1,0.9h-2.2c0-0.4-0.1-0.7-0.3-1C66.4,8.4,66.2,8.2,66,8c-0.2-0.2-0.5-0.3-0.8-0.4
		c-0.3-0.1-0.6-0.1-0.9-0.1c-0.3,0-0.6,0-0.8,0.1c-0.3,0.1-0.5,0.1-0.7,0.3c-0.2,0.1-0.4,0.3-0.5,0.5C62,8.5,62,8.7,62,9
		c0,0.3,0.1,0.6,0.3,0.8c0.2,0.2,0.5,0.4,0.8,0.6c0.3,0.2,0.7,0.3,1.2,0.5c0.4,0.1,0.9,0.3,1.3,0.4c0.5,0.1,0.9,0.3,1.3,0.5
		c0.4,0.2,0.8,0.4,1.2,0.7c0.3,0.3,0.6,0.6,0.8,0.9c0.2,0.4,0.3,0.8,0.3,1.3c0,0.6-0.1,1.1-0.4,1.6c-0.2,0.5-0.6,0.8-1,1.1
		c-0.4,0.3-0.9,0.5-1.5,0.7c-0.6,0.2-1.2,0.2-1.9,0.2c-0.6,0-1.2-0.1-1.8-0.3c-0.6-0.2-1.1-0.5-1.6-0.9c-0.5-0.4-0.8-0.9-1.1-1.4
		c-0.3-0.6-0.4-1.2-0.5-1.9H61.7z"/>
	<path class="st2" d="M79.5,12l4.2,6h-2.4l-2.9-4.2L75.4,18H73l4.1-6L73,6.1h2.4l2.9,4.2l2.9-4.2h2.4L79.5,12z"/>
</g>
<g>
	<path class="st2" d="M30.8,22v2h2.1v-2h0.8v4.8h-0.8v-2.1h-2.1v2.1H30V22H30.8z"/>
	<path class="st2" d="M35.7,25.3c0,0.1,0,0.2,0.1,0.4c0,0.1,0.1,0.2,0.2,0.3c0.1,0.1,0.2,0.2,0.2,0.2c0.1,0,0.2,0.1,0.3,0.1
		c0.2,0,0.4-0.1,0.5-0.2c0.1-0.1,0.2-0.3,0.3-0.5H38c0,0.2-0.1,0.4-0.2,0.5c-0.1,0.2-0.2,0.3-0.4,0.4c-0.1,0.1-0.3,0.2-0.5,0.3
		s-0.3,0.1-0.5,0.1c-0.2,0-0.5,0-0.7-0.1c-0.2-0.1-0.4-0.2-0.5-0.4c-0.1-0.2-0.2-0.4-0.3-0.6c-0.1-0.2-0.1-0.5-0.1-0.7
		c0-0.2,0-0.5,0.1-0.7c0.1-0.2,0.2-0.4,0.3-0.6c0.1-0.2,0.3-0.3,0.5-0.4c0.2-0.1,0.4-0.1,0.7-0.1c0.2,0,0.5,0,0.6,0.1
		c0.2,0.1,0.4,0.2,0.5,0.4c0.1,0.2,0.2,0.3,0.3,0.5C38,24.5,38,24.7,38,25v0.3H35.7z M37.2,24.7c0-0.1,0-0.2-0.1-0.3
		c0-0.1-0.1-0.2-0.2-0.2c-0.1-0.1-0.1-0.1-0.2-0.1c-0.1,0-0.2-0.1-0.3-0.1c-0.1,0-0.2,0-0.3,0.1c-0.1,0-0.2,0.1-0.2,0.2
		c-0.1,0.1-0.1,0.1-0.2,0.2c0,0.1-0.1,0.2-0.1,0.3H37.2z"/>
	<path class="st2" d="M42,26.7c-0.1,0-0.1,0.1-0.2,0.1c-0.1,0-0.1,0-0.1,0c0,0-0.1,0-0.1,0c0,0-0.1,0-0.1,0c-0.1,0-0.2,0-0.2,0
		c-0.1,0-0.1-0.1-0.2-0.1c-0.1,0-0.1-0.1-0.1-0.2c0-0.1-0.1-0.1-0.1-0.2c-0.1,0.1-0.2,0.2-0.3,0.3s-0.2,0.1-0.3,0.2
		c-0.1,0-0.2,0.1-0.3,0.1s-0.2,0-0.3,0c-0.2,0-0.3,0-0.4-0.1c-0.1,0-0.3-0.1-0.3-0.2c-0.1-0.1-0.2-0.2-0.2-0.3
		c-0.1-0.1-0.1-0.3-0.1-0.4c0-0.1,0-0.2,0.1-0.3c0.1-0.1,0.1-0.2,0.2-0.3c0.1-0.1,0.2-0.1,0.3-0.2s0.3-0.1,0.4-0.1
		c0.1,0,0.3-0.1,0.4-0.1s0.2-0.1,0.3-0.1c0.1,0,0.2-0.1,0.2-0.1c0.1-0.1,0.1-0.1,0.1-0.2c0-0.1,0-0.1-0.1-0.2c0,0-0.1-0.1-0.1-0.1
		c-0.1,0-0.1-0.1-0.2-0.1c-0.1,0-0.1,0-0.2,0c-0.1,0-0.1,0-0.2,0c-0.1,0-0.1,0-0.2,0.1c-0.1,0-0.1,0.1-0.1,0.2
		c0,0.1-0.1,0.1-0.1,0.2h-0.8c0-0.2,0.1-0.4,0.1-0.5c0.1-0.1,0.2-0.3,0.3-0.4c0.1-0.1,0.3-0.2,0.4-0.2c0.2,0,0.3-0.1,0.5-0.1
		c0.2,0,0.4,0,0.5,0.1c0.2,0,0.3,0.1,0.4,0.2c0.1,0.1,0.2,0.2,0.3,0.3c0.1,0.1,0.1,0.3,0.1,0.5V26c0,0,0,0.1,0,0.1
		c0,0,0.1,0.1,0.1,0.1c0,0,0,0,0.1,0c0,0,0.1,0,0.2-0.1V26.7z M40.8,25.1c-0.1,0-0.1,0.1-0.2,0.1c-0.1,0-0.2,0-0.3,0.1
		c-0.1,0-0.2,0.1-0.3,0.1c-0.1,0-0.2,0.1-0.3,0.1c-0.1,0-0.1,0.1-0.2,0.1c-0.1,0.1-0.1,0.1-0.1,0.2c0,0.1,0,0.1,0,0.2
		c0,0,0.1,0.1,0.1,0.1c0,0,0.1,0.1,0.1,0.1c0,0,0.1,0,0.1,0c0.2,0,0.3-0.1,0.5-0.2c0.2-0.1,0.3-0.3,0.4-0.5V25.1z"/>
	<path class="st2" d="M43.5,22v4.8h-0.8V22H43.5z"/>
	<path class="st2" d="M45.6,22.4v1h0.6V24h-0.6v1.9c0,0.1,0,0.2,0.1,0.2c0,0.1,0.1,0.1,0.2,0.1c0,0,0.1,0,0.1,0c0.1,0,0.2,0,0.3-0.1
		v0.6c-0.1,0.1-0.3,0.1-0.4,0.1c-0.1,0-0.2,0-0.3,0c-0.1,0-0.2,0-0.3-0.1c-0.1,0-0.2-0.1-0.3-0.2c-0.1-0.1-0.1-0.2-0.2-0.3
		c0-0.1-0.1-0.2-0.1-0.4v-2h-0.5v-0.7h0.5v-1H45.6z"/>
	<path class="st2" d="M47.9,22v1.7c0.2-0.3,0.6-0.4,0.9-0.4c0.2,0,0.3,0,0.5,0.1c0.1,0.1,0.3,0.1,0.4,0.2c0.1,0.1,0.2,0.2,0.2,0.4
		c0.1,0.1,0.1,0.3,0.1,0.4v2.4h-0.8v-2.3c0-0.1,0-0.2,0-0.3c0-0.1-0.1-0.1-0.1-0.2c0,0-0.1-0.1-0.2-0.1c-0.1,0-0.1,0-0.2,0
		c-0.1,0-0.2,0-0.3,0.1s-0.2,0.1-0.3,0.2c-0.1,0.1-0.1,0.2-0.2,0.3c0,0.1-0.1,0.2-0.1,0.3v2.1h-0.8V22H47.9z"/>
	<path class="st2" d="M52.3,25.6l0.8-2.3h0.8l-1.4,4.1c0,0.1-0.1,0.2-0.2,0.3S52.1,28,52.1,28c-0.1,0.1-0.2,0.1-0.3,0.1
		c-0.1,0-0.2,0-0.2,0c-0.1,0-0.1,0-0.2,0c-0.1,0-0.2-0.1-0.3-0.1v-0.6c0.1,0,0.2,0.1,0.2,0.1c0.1,0,0.1,0,0.1,0c0.1,0,0.1,0,0.1,0
		c0,0,0.1-0.1,0.1-0.2c0-0.1,0.1-0.2,0.1-0.3c0-0.1,0.1-0.2,0.1-0.4c0-0.1-0.1-0.2-0.1-0.2c0-0.1-0.1-0.2-0.1-0.3
		c0-0.1-0.1-0.3-0.1-0.4c-0.1-0.2-0.1-0.3-0.2-0.6c-0.1-0.2-0.2-0.5-0.3-0.8c-0.1-0.3-0.2-0.7-0.4-1.1h0.8L52.3,25.6z"/>
	<path class="st2" d="M57.1,22h1.9c0.2,0,0.5,0,0.6,0.1c0.2,0.1,0.3,0.2,0.5,0.3c0.1,0.1,0.2,0.3,0.3,0.5c0.1,0.2,0.1,0.3,0.1,0.5
		c0,0.2,0,0.4-0.1,0.5c-0.1,0.2-0.2,0.3-0.3,0.5c-0.1,0.1-0.3,0.2-0.5,0.3c-0.2,0.1-0.4,0.1-0.6,0.1h-1.1v1.9h-0.8V22z M57.9,24.2
		h0.9c0.2,0,0.3,0,0.4-0.1c0.1,0,0.2-0.1,0.3-0.2c0.1-0.1,0.1-0.1,0.1-0.2c0-0.1,0-0.2,0-0.3s0-0.2-0.1-0.3c0-0.1-0.1-0.2-0.2-0.2
		c-0.1-0.1-0.2-0.1-0.3-0.2c-0.1,0-0.2-0.1-0.4-0.1h-0.9V24.2z"/>
	<path class="st2" d="M62.2,22v4.8h-0.8V22H62.2z"/>
	<path class="st2" d="M66.4,26.7c-0.1,0-0.1,0.1-0.2,0.1c-0.1,0-0.1,0-0.1,0c0,0-0.1,0-0.1,0c0,0-0.1,0-0.1,0c-0.1,0-0.2,0-0.2,0
		c-0.1,0-0.1-0.1-0.2-0.1c-0.1,0-0.1-0.1-0.1-0.2c0-0.1-0.1-0.1-0.1-0.2c-0.1,0.1-0.2,0.2-0.3,0.3s-0.2,0.1-0.3,0.2
		c-0.1,0-0.2,0.1-0.3,0.1s-0.2,0-0.3,0c-0.2,0-0.3,0-0.4-0.1c-0.1,0-0.3-0.1-0.3-0.2s-0.2-0.2-0.2-0.3c-0.1-0.1-0.1-0.3-0.1-0.4
		c0-0.1,0-0.2,0.1-0.3c0.1-0.1,0.1-0.2,0.2-0.3c0.1-0.1,0.2-0.1,0.3-0.2s0.3-0.1,0.4-0.1c0.1,0,0.3-0.1,0.4-0.1
		c0.1,0,0.2-0.1,0.3-0.1c0.1,0,0.2-0.1,0.2-0.1c0.1-0.1,0.1-0.1,0.1-0.2c0-0.1,0-0.1-0.1-0.2c0,0-0.1-0.1-0.1-0.1
		c-0.1,0-0.1-0.1-0.2-0.1c-0.1,0-0.1,0-0.2,0c-0.1,0-0.1,0-0.2,0c-0.1,0-0.1,0-0.2,0.1c-0.1,0-0.1,0.1-0.1,0.2
		c0,0.1-0.1,0.1-0.1,0.2h-0.8c0-0.2,0.1-0.4,0.1-0.5c0.1-0.1,0.2-0.3,0.3-0.4c0.1-0.1,0.3-0.2,0.4-0.2c0.2,0,0.3-0.1,0.5-0.1
		c0.2,0,0.4,0,0.5,0.1c0.2,0,0.3,0.1,0.4,0.2c0.1,0.1,0.2,0.2,0.3,0.3C66,24,66,24.2,66,24.3V26c0,0,0,0.1,0,0.1
		c0,0,0.1,0.1,0.1,0.1c0,0,0,0,0.1,0c0,0,0.1,0,0.2-0.1V26.7z M65.2,25.1c-0.1,0-0.1,0.1-0.2,0.1c-0.1,0-0.2,0-0.3,0.1
		c-0.1,0-0.2,0.1-0.3,0.1c-0.1,0-0.2,0.1-0.3,0.1c-0.1,0-0.1,0.1-0.2,0.1c-0.1,0.1-0.1,0.1-0.1,0.2c0,0.1,0,0.1,0,0.2
		c0,0,0.1,0.1,0.1,0.1c0,0,0.1,0.1,0.1,0.1c0,0,0.1,0,0.1,0c0.2,0,0.3-0.1,0.5-0.2c0.2-0.1,0.3-0.3,0.4-0.5V25.1z"/>
	<path class="st2" d="M68.1,22.4v1h0.6V24h-0.6v1.9c0,0.1,0,0.2,0.1,0.2c0,0.1,0.1,0.1,0.2,0.1c0,0,0.1,0,0.1,0c0.1,0,0.2,0,0.3-0.1
		v0.6c-0.1,0.1-0.3,0.1-0.4,0.1c-0.1,0-0.2,0-0.3,0c-0.1,0-0.2,0-0.3-0.1s-0.2-0.1-0.3-0.2c-0.1-0.1-0.1-0.2-0.2-0.3
		c0-0.1-0.1-0.2-0.1-0.4v-2h-0.5v-0.7h0.5v-1H68.1z"/>
	<path class="st2" d="M69.9,23.3v-0.7c0-0.1,0-0.2,0.1-0.3c0-0.1,0.1-0.2,0.2-0.2s0.2-0.1,0.3-0.2c0.1,0,0.2-0.1,0.4-0.1
		c0,0,0.1,0,0.1,0c0,0,0.1,0,0.2,0c0.1,0,0.1,0,0.2,0.1c0.1,0,0.2,0.1,0.3,0.1v0.6c-0.1,0-0.2-0.1-0.3-0.1c-0.1,0-0.1,0-0.2,0
		c0,0-0.1,0-0.1,0c0,0,0,0,0,0c0,0-0.1,0-0.1,0c0,0-0.1,0-0.1,0c0,0,0,0-0.1,0.1c0,0,0,0.1,0,0.1v0.5h0.6V24h-0.6v2.8h-0.8V24h-0.5
		v-0.7H69.9z"/>
	<path class="st2" d="M71.9,25.1c0-0.2,0-0.5,0.1-0.7c0.1-0.2,0.2-0.4,0.3-0.6c0.1-0.2,0.3-0.3,0.5-0.4c0.2-0.1,0.4-0.1,0.7-0.1
		c0.3,0,0.5,0,0.7,0.1c0.2,0.1,0.4,0.2,0.5,0.4c0.1,0.2,0.2,0.4,0.3,0.6c0.1,0.2,0.1,0.5,0.1,0.7c0,0.2,0,0.5-0.1,0.7
		c-0.1,0.2-0.2,0.4-0.3,0.6c-0.1,0.2-0.3,0.3-0.5,0.4c-0.2,0.1-0.4,0.1-0.7,0.1c-0.3,0-0.5,0-0.7-0.1c-0.2-0.1-0.4-0.2-0.5-0.4
		c-0.1-0.2-0.2-0.4-0.3-0.6C72,25.5,71.9,25.3,71.9,25.1z M72.7,25.1c0,0.2,0,0.3,0.1,0.4c0,0.1,0.1,0.3,0.2,0.4s0.2,0.2,0.3,0.2
		c0.1,0.1,0.2,0.1,0.3,0.1s0.2,0,0.3-0.1c0.1-0.1,0.2-0.1,0.3-0.2c0.1-0.1,0.1-0.2,0.2-0.4c0-0.1,0.1-0.3,0.1-0.4
		c0-0.2,0-0.3-0.1-0.4c0-0.1-0.1-0.3-0.2-0.4c-0.1-0.1-0.2-0.2-0.3-0.2c-0.1-0.1-0.2-0.1-0.3-0.1s-0.2,0-0.3,0.1
		c-0.1,0.1-0.2,0.1-0.3,0.2c-0.1,0.1-0.1,0.2-0.2,0.4C72.8,24.8,72.7,24.9,72.7,25.1z"/>
	<path class="st2" d="M76.2,23.3h0.6l0.1,0.4c0.1-0.2,0.2-0.3,0.3-0.4c0.1-0.1,0.2-0.1,0.4-0.1c0,0,0.1,0,0.2,0
		c0.1,0,0.2,0.1,0.3,0.1v0.7c-0.1,0-0.2-0.1-0.2-0.1c-0.1,0-0.1,0-0.1,0c0,0-0.1,0-0.1,0c0,0,0,0,0,0c-0.1,0-0.2,0-0.3,0.1
		c-0.1,0-0.1,0.1-0.2,0.2c-0.1,0.1-0.1,0.1-0.1,0.2s0,0.2,0,0.3v2.1h-0.8V23.3z"/>
	<path class="st2" d="M78.7,23.3h0.8v0.4c0.1-0.2,0.3-0.3,0.4-0.3c0.1-0.1,0.3-0.1,0.4-0.1c0.1,0,0.2,0,0.2,0c0.1,0,0.1,0,0.2,0.1
		c0.1,0,0.1,0.1,0.2,0.2c0.1,0.1,0.1,0.2,0.2,0.3c0.1-0.1,0.2-0.2,0.3-0.3c0.1-0.1,0.2-0.1,0.3-0.2c0.1,0,0.2-0.1,0.3-0.1
		c0.1,0,0.2,0,0.3,0c0.2,0,0.3,0,0.5,0.1c0.1,0.1,0.3,0.1,0.4,0.3c0.1,0.1,0.2,0.2,0.2,0.4c0.1,0.1,0.1,0.3,0.1,0.5v2.3h-0.8v-2.3
		c0-0.1,0-0.2,0-0.3s-0.1-0.1-0.1-0.2c0,0-0.1-0.1-0.2-0.1c-0.1,0-0.1,0-0.2,0c-0.1,0-0.2,0-0.2,0.1c-0.1,0-0.2,0.1-0.2,0.2
		c-0.1,0.1-0.1,0.1-0.2,0.2c0,0.1-0.1,0.2-0.1,0.3v2.1h-0.8v-2.3c0-0.1,0-0.2,0-0.3c0-0.1-0.1-0.1-0.1-0.2c0,0-0.1-0.1-0.1-0.1
		c-0.1,0-0.1,0-0.1,0c-0.1,0-0.2,0-0.3,0.1c-0.1,0.1-0.2,0.1-0.2,0.2c-0.1,0.1-0.1,0.2-0.2,0.3c0,0.1-0.1,0.2-0.1,0.3v2.1h-0.8V23.3
		z"/>
</g>
<linearGradient id="SVGID_00000116203861036805193110000016012311623516849296_" gradientUnits="userSpaceOnUse" x1="65.5718" y1="8.9146" x2="70.2517" y2="8.9146" gradientTransform="matrix(1.0089 -1.111860e-02 -1.111860e-02 1.0139 -3.3119 4.1407)">
	<stop  offset="0" style="stop-color:#00A2DC"/>
	<stop  offset="1" style="stop-color:#00B8BC"/>
</linearGradient>
<polygon style="fill:url(#SVGID_00000116203861036805193110000016012311623516849296_);" points="64.5,15 62.7,13.6 65.8,9.8 
	67.5,11.2 "/>
</svg>
