<?xml version="1.0" encoding="UTF-8"?>
<svg id="Layer_1" data-name="Layer 1" xmlns="http://www.w3.org/2000/svg" xmlns:xlink="http://www.w3.org/1999/xlink" viewBox="0 0 32 32">
  <defs>
    <style>
      .cls-1 {
        fill: url(#Dégradé_sans_nom_7);
      }

      .cls-2 {
        fill: #606060;
      }

      .cls-3 {
        fill: url(#Dégradé_sans_nom_7-2);
      }
    </style>
    <linearGradient id="Dégradé_sans_nom_7" data-name="Dégradé sans nom 7" x1=".24" y1="21.92" x2="20.82" y2="16.59" gradientUnits="userSpaceOnUse">
      <stop offset="0" stop-color="#00a2dc"/>
      <stop offset="1" stop-color="#00b8bc"/>
    </linearGradient>
    <linearGradient id="Dégradé_sans_nom_7-2" data-name="Dégradé sans nom 7" x1="-.69" y1="18.31" x2="19.89" y2="12.98" xlink:href="#Dégradé_sans_nom_7"/>
  </defs>
  <path class="cls-1" d="M28.58,12.73c-.28-.6-.71-1.07-1.29-1.42-.58-.35-1.31-.53-2.19-.53h-3.3c-.33,0-.6.27-.6.6v1.8c0,.37-.3.66-.66.66h-.29c-.34,0-.61.27-.61.61v4.39s0,.02.02.02h.28,0c.37,0,.66.3.66.66v2.37h1.21c.34,0,.61-.27.61-.61v-2.64s0-.02.02-.02h2.61c.82,0,1.52-.16,2.11-.49.59-.33,1.05-.78,1.37-1.37.32-.59.48-1.26.48-2.02s-.14-1.42-.42-2.02ZM25.73,16.01c-.29.32-.73.48-1.32.48h-1.39c-.34,0-.61-.27-.61-.61v-2.95s0-.02.02-.02h2.07c.57,0,1,.16,1.27.47.27.32.41.76.41,1.34,0,.53-.15.95-.44,1.28Z"/>
  <path class="cls-2" d="M20.89,10.1h-3.1c-.19,0-.34.15-.34.34v2.35h0c0,1.05-.61,1.82-1.06,2.24-.26.24-.6.37-.95.37h-1.42s0,0-.01,0c-.06,0-.13,0-.19-.02-.26-.08-1.12-.53-1.14-1.01h0v-.32c0-.11-.09-.2-.2-.2h-.9v.9c0,.11.09.2.2.2h.52s.05,0,.08,0c.74.05,1.3.69,1.3,1.43v1.44s0,.02,0,.02c-.03.14-.36,1.41-1.45,2.07-.26.16-.55.24-.85.24h0c-.18,0-.32.14-.32.32v1.42s1.42,0,1.42,0c.18,0,.32-.14.32-.32v-.68h0c0-1.05.61-1.82,1.06-2.24.26-.24.6-.37.95-.37h1.3s0,0,0,0c0,0,1.27.27,2,1.31.22.31.32.69.32,1.07h0c0,.19.15.34.34.34h1.51s0-1.51,0-1.51c0-.19-.15-.34-.34-.34h-.76,0c-1.2,0-2.03-.8-2.4-1.24-.14-.16-.21-.37-.21-.59,0,0,0-.78,0-1.21,0-.22.04-.44.11-.64.16-.43.52-1.15,1.21-1.63.3-.21.67-.31,1.04-.31h1.62c.19,0,.34-.15.34-.34v-3.1Z"/>
  <path class="cls-2" d="M14.37,12.44h1.04c.17,0,.3-.13.3-.3v-1.34h-1.34c-.17,0-.3.13-.3.3v1.04c0,.17.13.3.3.3Z"/>
  <path class="cls-2" d="M15.67,18.73h-1.04c-.17,0-.3.13-.3.3v1.04c0,.17.13.3.3.3h1.34v-1.34c0-.17-.13-.3-.3-.3Z"/>
  <path class="cls-2" d="M18.97,15.03h-1.34c-.17,0-.3.13-.3.3v1.04c0,.17.13.3.3.3h1.04c.17,0,.3-.13.3-.3v-1.34Z"/>
  <path class="cls-3" d="M12.3,15.25h-.41c-.34,0-.61-.27-.61-.61v-1.1h0s1.07,0,1.07,0c.34,0,.62-.28.62-.62v-2.12h-2.2c-.34,0-.61.27-.61.61v3.07c0,.34-.27.61-.61.61h-3.13c-.34,0-.61-.27-.61-.61v-3.07c0-.34-.27-.61-.61-.61h-2.2v10.49c0,.34.27.61.61.61h2.2v-3.87c0-.34.27-.61.61-.61h3.13c.34,0,.61.27.61.61v3.87h.59v-1.89c0-.14.13-.24.26-.2.37.1.75.04,1.06-.14.41-.25.7-.59.9-.92v-3.23c-.17-.14-.38-.23-.61-.25-.02,0-.04,0-.06,0Z"/>
</svg>